<?xml version="1.0" standalone="no"?>
<!DOCTYPE svg PUBLIC "-//W3C//DTD SVG 1.1//EN" "http://www.w3.org/Graphics/SVG/1.1/DTD/svg11.dtd" >
<svg>
<metadata>
Created by FontForge 20090914 at Wed Aug 24 15:06:40 2022
 By www-data
Copyright (c) 2017 by Cyrill Tkachev, Andrij Shevchenko. All rights reserved.
</metadata>
<defs>
<font id="DniproCity-Bold" horiz-adv-x="522" >
  <font-face 
    font-family="DniproCity"
    font-weight="700"
    font-stretch="normal"
    units-per-em="1000"
    panose-1="2 1 8 3 2 2 0 2 0 4"
    ascent="800"
    descent="-200"
    x-height="500"
    cap-height="648"
    bbox="-43.001 -203 963 824"
    underline-thickness="50"
    underline-position="-150"
    unicode-range="U+0020-U+2192"
  />
<missing-glyph horiz-adv-x="300" 
 />
    <glyph glyph-name=".notdef" horiz-adv-x="300" 
 />
    <glyph glyph-name="space" unicode=" " horiz-adv-x="280" 
 />
    <glyph glyph-name="ampersand" unicode="&#x26;" horiz-adv-x="694" 
d="M40 178c0 44 13.167 82.167 39.5 114.5s60.5 55.833 102.5 70.5c-5.33301 26.667 -8 48.667 -8 66c0 71.333 20.333 128.666 61 171.999s94.667 65 162 65c30 0 53.667 -2.33301 71 -7v-95c-24.667 5.33301 -48 8 -70 8c-79.333 0 -119 -46 -119 -138
c0 -33.333 10.667 -79.666 32 -138.999s48.333 -116 81 -170c42.667 43.333 68 108.333 76 195h-101v89h301l-17 -89h-90c-9.33301 -118 -48 -208.667 -116 -272c60.667 -74.667 119.667 -112 177 -112c30.667 0 58.334 6.66699 83.001 20v-95
c-21.333 -13.333 -49 -20 -83 -20c-85.333 0 -171 52.333 -257 157c-34.667 -13.333 -70.334 -20 -107.001 -20c-66 0 -118.833 18.833 -158.5 56.5s-59.5 85.5 -59.5 143.5zM146 186c0 -34.667 9.50098 -62.167 28.501 -82.5s46.833 -30.5 83.5 -30.5
c16 0 32.333 1.66699 49 5c-40.667 63.333 -74.334 132.333 -101.001 207c-40 -24 -60 -57 -60 -99z" />
    <glyph glyph-name="quotesingle" unicode="'" horiz-adv-x="183" 
d="M49 442l-10 206h105l-10 -206h-85z" />
    <glyph glyph-name="parenleft" unicode="(" horiz-adv-x="385" 
d="M308 -140l-105.999 -21.001c-39.333 43.333 -71.333 96.333 -96 159s-37 130.334 -37 203.001c0 102.667 18.167 194.5 54.5 275.5s85.166 144.833 146.499 191.5l106 -20c-134.667 -108 -202 -251.667 -202 -431c0 -136.667 44.667 -255.667 134 -357z" />
    <glyph glyph-name="parenright" unicode=")" horiz-adv-x="385" 
d="M77 647l105.999 21.001c39.333 -43.333 71.333 -96.333 96 -159s37 -130.334 37 -203.001c0 -102.667 -18.167 -194.5 -54.5 -275.5s-85.166 -144.833 -146.499 -191.5l-106 20c134.667 108 202 251.667 202 431c0 136.667 -44.667 255.667 -134 357z" />
    <glyph glyph-name="asterisk" unicode="*" horiz-adv-x="546" 
d="M30 506l66 98l144 -116l32 184l113 -33l-66 -171l185 27l4 -118l-185 9l83 -167l-111 -40l-48 176l-133 -129l-73 93l153 100z" />
    <glyph glyph-name="comma" unicode="," horiz-adv-x="203" 
d="M71 -203l-71 23l75 296l119 -14z" />
    <glyph glyph-name="hyphen" unicode="-" horiz-adv-x="413" 
d="M357 233h-311v95h328z" />
    <glyph glyph-name="period" unicode="." horiz-adv-x="229" 
d="M49 0v117h121v-117h-121z" />
    <glyph glyph-name="zero" unicode="0" horiz-adv-x="572" 
d="M286 -23c-76 0 -134.5 31.833 -175.5 95.5s-61.5 147.834 -61.5 252.501s20.5 188.834 61.5 252.501s99.5 95.5 175.5 95.5s134.5 -31.833 175.5 -95.5s61.5 -147.834 61.5 -252.501s-20.5 -188.834 -61.5 -252.501s-99.5 -95.5 -175.5 -95.5zM286 577
c-43.333 0 -76.166 -22.5 -98.499 -67.5s-33.5 -106.5 -33.5 -184.5s11.167 -139.5 33.5 -184.5s55.166 -67.5 98.499 -67.5s76.166 22.5 98.499 67.5s33.5 106.5 33.5 184.5s-11.167 139.5 -33.5 184.5s-55.166 67.5 -98.499 67.5z" />
    <glyph glyph-name="one" unicode="1" horiz-adv-x="408" 
d="M365 0h-319v95h121v439l-133 -14v79l133 30l103 30v-564h114z" />
    <glyph glyph-name="two" unicode="2" horiz-adv-x="443" 
d="M394 1l-366.001 -0.000976562l-25 58l3 2l247 299c33.333 40 50 80.667 50 122c0 28.667 -9.16699 51.834 -27.5 69.501s-45.166 26.5 -80.499 26.5c-52.667 0 -103.334 -16.667 -152.001 -50v98c18.667 14 42.334 25.667 71.001 35s55.667 14 81 14
c69.333 0 122.333 -17.167 159 -51.5s55 -78.5 55 -132.5c0 -57.333 -30.667 -122.333 -92 -195l-170 -200h261z" />
    <glyph glyph-name="three" unicode="3" horiz-adv-x="425" 
d="M396 220c0 -70 -31.998 -127.501 -95.998 -172.501s-154.333 -67.5 -271 -67.5v96c85.333 0 150.666 13 195.999 39s68 61 68 105c0 24 -8.5 44.167 -25.5 60.5s-42.833 24.5 -77.5 24.5c-32.667 0 -59.334 -7.66699 -80.001 -23l-52 47l174 224h-208l13 95h341v-58
l-158 -191c1.33301 0 3.33301 0.166992 6 0.5s4.66699 0.5 6 0.5c48 0 87.333 -16.667 118 -50s46 -76.666 46 -129.999z" />
    <glyph glyph-name="four" unicode="4" horiz-adv-x="500" 
d="M483 151h-80v-151h-103v151h-248l-43 70l267 427h112l-255 -402h167v187l103 25v-212h94z" />
    <glyph glyph-name="five" unicode="5" horiz-adv-x="427" 
d="M398 230c0 -72 -31.999 -131.667 -95.999 -179s-154.333 -71 -271 -71v96c85.333 0 150.666 13.833 195.999 41.5s68 65.167 68 112.5c0 29.333 -9.83301 52.5 -29.5 69.5s-48.5 25.5 -86.5 25.5c-27.333 0 -53 -5.33301 -77 -16l-66 17l40 332l98 -10h213l-14 -95h-211
l-17 -140c18.667 4.66699 34.667 7 48 7c62.667 0 112.5 -17.333 149.5 -52s55.5 -80.667 55.5 -138z" />
    <glyph glyph-name="six" unicode="6" 
d="M493 199c0 -62.667 -19.334 -114.833 -58.001 -156.5s-90 -62.5 -154 -62.5c-50 0 -93 15.333 -129 46s-62.167 68.667 -78.5 114s-24.5 94 -24.5 146c0 114.667 35.833 207.334 107.5 278.001s162.834 106 273.501 106v-96c-68.667 0 -127 -17.833 -175 -53.5
s-79 -85.834 -93 -150.501c35.333 20 73.333 30 114 30c62 0 113.667 -19 155 -57s62 -86 62 -144zM386.999 195.001c0 34 -11.001 60.833 -33.001 80.5s-52.667 29.5 -92 29.5c-33.333 0 -69.333 -9.66699 -108 -29c2 -60 14.333 -108.333 37 -145s53.334 -55 92.001 -55
c31.333 0 56.5 10.833 75.5 32.5s28.5 50.5 28.5 86.5z" />
    <glyph glyph-name="seven" unicode="7" horiz-adv-x="444" 
d="M39 0l126 248h-98l12 93h133l108 212h-275l13 95h389v-64l-299 -584h-109z" />
    <glyph glyph-name="eight" unicode="8" horiz-adv-x="516" 
d="M454 490c0 -56.667 -22.334 -103 -67.001 -139c60 -40.667 90 -96.667 90 -168c0 -58.667 -21.167 -107.667 -63.5 -147s-94.166 -59 -155.499 -59s-113.166 19.667 -155.499 59s-63.5 88.333 -63.5 147c0 71.333 29.667 127.333 89 168c-43.333 36 -65 82.333 -65 139
c0 52.667 18.667 96.334 56 131.001s83.666 52 138.999 52s101.833 -17.333 139.5 -52s56.5 -78.334 56.5 -131.001zM144.999 188c0 -34.667 10.833 -62.834 32.5 -84.501s48.5 -32.5 80.5 -32.5s59 10.833 81 32.5s33 49.834 33 84.501s-11 63 -33 85s-49 33 -81 33
s-58.833 -11 -80.5 -33s-32.5 -50.333 -32.5 -85zM257.999 579c-26 0 -47.333 -8.83301 -64 -26.5s-25 -40.167 -25 -67.5s8.33301 -49.833 25 -67.5s38 -26.5 64 -26.5c25.333 0 46.5 8.83301 63.5 26.5s25.5 40.167 25.5 67.5s-8.5 49.833 -25.5 67.5
s-38.167 26.5 -63.5 26.5z" />
    <glyph glyph-name="nine" unicode="9" 
d="M29 454c0 62.667 19.334 114.833 58.001 156.5s90 62.5 154 62.5c50 0 93 -15.333 129 -46s62.167 -68.667 78.5 -114s24.5 -94 24.5 -146c0 -115.333 -35.833 -208.666 -107.5 -279.999s-162.834 -107 -273.501 -107v96c68.667 0 127 18.167 175 54.5
s79 87.166 93 152.499c-33.333 -20 -71.333 -30 -114 -30c-62 0 -113.667 19 -155 57s-62 86 -62 144zM135.001 457.999c0 -34 10.999 -60.833 32.999 -80.5s52.667 -29.5 92 -29.5c32.667 0 68.334 9.33301 107.001 28c-1.33301 60 -13.5 108.5 -36.5 145.5
s-53.5 55.5 -91.5 55.5c-31.333 0 -56.5 -10.833 -75.5 -32.5s-28.5 -50.5 -28.5 -86.5z" />
    <glyph glyph-name="colon" unicode=":" horiz-adv-x="209" 
d="M60 0v99h99v-99h-99zM60 324v99h99v-99h-99z" />
    <glyph glyph-name="question" unicode="?" horiz-adv-x="363" 
d="M78 199l0.000976562 31.001c0 22 5.33301 42.5 16 61.5s23.5 35.667 38.5 50l45.5 42.5c15.333 14 28.333 30.167 39 48.5s16 38.166 16 59.499c0 27.333 -9.33301 48.333 -28 63s-45.334 22 -80.001 22c-37.333 0 -71 -7.66699 -101 -23v96c25.333 14.667 59 22 101 22
c66 0 118.167 -16.667 156.5 -50s57.5 -74 57.5 -122c0 -28 -5.16699 -53.5 -15.5 -76.5s-22.833 -42 -37.5 -57l-44 -43c-14.667 -13.667 -27.167 -28.667 -37.5 -45s-15.5 -33.833 -15.5 -52.5v-37zM80.001 0.000976562v117h121v-117h-121z" />
    <glyph glyph-name="at" unicode="@" horiz-adv-x="660" 
d="M48 249c0 76.667 13.501 146.332 40.501 208.999s67.833 113.334 122.5 152.001s118.334 58 191.001 58c61.333 0 109.666 -16.833 144.999 -50.5s53 -91.834 53 -174.501v-377h-21l-45 25c-39.333 -30 -79 -45 -119 -45c-55.333 0 -100.333 17 -135 51
s-52 80.333 -52 139c0 63.333 25.833 117.333 77.5 162s115.167 67.334 190.5 68.001c-2.66699 37.333 -12.5 64.5 -29.5 81.5s-41.833 25.5 -74.5 25.5c-76 0 -134.667 -30.333 -176 -91s-62 -135.667 -62 -225c0 -92 20.5 -168.667 61.5 -230s95.5 -92 163.5 -92
c55.333 0 114 15 176 45v-95c-54 -30 -116 -45 -186 -45c-65.333 0 -122.833 19 -172.5 57s-86.834 87.667 -111.501 149s-37 129 -37 203zM427.001 138.998c26.667 0 50 12.334 70 37.001v195c-52 -0.666992 -92.667 -13.834 -122 -39.501s-44 -57.5 -44 -95.5
c0 -31.333 9.5 -55.333 28.5 -72s41.5 -25 67.5 -25z" />
    <glyph glyph-name="A" unicode="A" horiz-adv-x="649" 
d="M413 648l221 -648h-114l-61 181h-270l-91 -198l-104 31l300 634h119zM344 520l-112 -244h195z" />
    <glyph glyph-name="B" unicode="B" horiz-adv-x="584" 
d="M79 0v553.001l-10 95h200c84.667 0 147.667 -14.833 189 -44.5s62 -70.167 62 -121.5c0 -60.667 -30.667 -107.334 -92 -140.001c81.333 -24 122 -70.667 122 -140c0 -58.667 -25 -107 -75 -145s-123 -57 -219 -57h-177zM444 194.001c0 27.333 -12.333 48.833 -37 64.5
s-60.667 23.5 -108 23.5h-115v-187h72c64.667 0 112.167 9 142.5 27s45.5 42 45.5 72zM414 474.001c0 52.667 -48.333 79 -145 79h-85v-176h115c30 0 56.667 9.5 80 28.5s35 41.833 35 68.5z" />
    <glyph glyph-name="C" unicode="C" horiz-adv-x="550" 
d="M516 647v-94.999c-50 16.667 -101 25 -153 25c-69.333 0 -123 -24.833 -161 -74.5s-57 -110.834 -57 -183.501c0 -70.667 18.667 -129.667 56 -177s87 -71 149 -71c55.333 0 114 15 176 45v-95c-50.667 -30 -109.334 -45 -176.001 -45c-95.333 0 -171 32 -227 96
s-84 143.667 -84 239c0 102.667 28.833 188.5 86.5 257.5s136.834 103.5 237.501 103.5c54.667 0 105.667 -8.33301 153 -25z" />
    <glyph glyph-name="D" unicode="D" horiz-adv-x="666" 
d="M627 357c0 -101.333 -30.333 -186.166 -91 -254.499s-141.667 -102.5 -243 -102.5h-214v553l-10 95h257c95.333 0 169.333 -27.333 222 -82s79 -124.334 79 -209.001zM521 349c0 60.667 -17.001 109.833 -51.001 147.5s-82 56.5 -144 56.5h-142v-458h109
c70.667 0 126.334 24.5 167.001 73.5s61 109.167 61 180.5z" />
    <glyph glyph-name="E" unicode="E" horiz-adv-x="545" 
d="M79 0v553l-10 95h432v-95h-317v-171h277l-15 -95h-262v-192h327v-95h-432z" />
    <glyph glyph-name="F" unicode="F" horiz-adv-x="490" 
d="M79 0v553l-10 95h412v-95h-297v-200h276l-15 -95h-261v-258h-105z" />
    <glyph glyph-name="G" unicode="G" horiz-adv-x="630" 
d="M539 647l0.00195312 -98c-54 18 -108.333 27 -163 27c-70.667 0 -126.834 -24.5 -168.501 -73.5s-62.5 -110.167 -62.5 -183.5c0 -70.667 18.667 -129.667 56 -177s87 -71 149 -71c38.667 0 75.667 6 111 18v218h105v-312h-26l-43 19
c-50.667 -25.333 -99.667 -38 -147 -38c-95.333 0 -171 32 -227 96s-84 143.667 -84 239c0 103.333 30.667 189.333 92 258s143 103 245 103c61.333 0 115.666 -8.33301 162.999 -25z" />
    <glyph glyph-name="H" unicode="H" horiz-adv-x="679" 
d="M79 0v648h105v-262h311v262l105 15v-663h-105v291h-311v-291h-105z" />
    <glyph glyph-name="I" unicode="I" horiz-adv-x="263" 
d="M79 0v648h105v-648h-105z" />
    <glyph glyph-name="J" unicode="J" horiz-adv-x="314" 
d="M140 648h105v-500c0 -60.667 -17.667 -108.167 -53 -142.5s-80.333 -51.5 -135 -51.5c-32 0 -59.667 5 -83 15v95c28 -10 55.667 -15 83 -15c24.667 0 44.667 7.83301 60 23.5s23 38.167 23 67.5v508z" />
    <glyph glyph-name="K" unicode="K" horiz-adv-x="606" 
d="M473 0l-281 324l287 346l80 -62l-238 -274l286 -334h-134zM79 0v648h105v-648h-105z" />
    <glyph glyph-name="L" unicode="L" horiz-adv-x="495" 
d="M79 0v648h105v-553h307v-95h-412z" />
    <glyph glyph-name="M" unicode="M" horiz-adv-x="804" 
d="M352 109l-173 373l4 -29v-453h-104v553l-10 95h141l189 -406l194 406h132v-648h-105v478l-174 -369h-94z" />
    <glyph glyph-name="N" unicode="N" horiz-adv-x="702" 
d="M623 648v-648h-122l-325 500l6 -47v-453h-103v553l-10 95h132l323 -499l-4 46v453h103z" />
    <glyph glyph-name="O" unicode="O" horiz-adv-x="713" 
d="M39 301c0 102.667 29.668 190.167 89.001 262.5s137.666 108.5 234.999 108.5s173.5 -31.833 228.5 -95.5s82.5 -140.167 82.5 -229.5c0 -104.667 -29.5 -192.667 -88.5 -264s-137.5 -107 -235.5 -107c-97.333 0 -173.5 31.833 -228.5 95.5s-82.5 140.167 -82.5 229.5z
M568.001 339c0 65.333 -18.167 121.333 -54.5 168s-86.5 70 -150.5 70c-67.333 0 -120.5 -26 -159.5 -78s-58.5 -115.333 -58.5 -190c0 -64.667 18.333 -120.5 55 -167.5s86.667 -70.5 150 -70.5c67.333 0 120.5 26 159.5 78s58.5 115.333 58.5 190z" />
    <glyph glyph-name="P" unicode="P" horiz-adv-x="579" 
d="M550 447c0 -74.667 -26.499 -135.834 -79.499 -183.501s-127.833 -71.5 -224.5 -71.5h-62v-192h-105v553l-10 95h220c85.333 0 150.166 -18.167 194.499 -54.5s66.5 -85.166 66.5 -146.499zM444.001 439c0 36 -12.832 64 -38.499 84s-64.5 30 -116.5 30h-105v-266h62
c65.333 0 114.666 14 147.999 42s50 64.667 50 110z" />
    <glyph glyph-name="Q" unicode="Q" horiz-adv-x="713" 
d="M39 301c0 102.667 29.6689 190.168 89.002 262.501s137.666 108.5 234.999 108.5s173.5 -31.833 228.5 -95.5s82.5 -140.167 82.5 -229.5c0 -72 -14.667 -137.333 -44 -196s-70.333 -103.334 -123 -134.001c30.667 -53.333 65 -80 103 -80c30.667 0 58.334 5 83.001 15
v-95c-20.667 -10 -48.334 -15 -83.001 -15c-79.333 0 -144.333 47 -195 141c-24.667 -4.66699 -46.334 -7 -65.001 -7c-97.333 0 -173.5 31.833 -228.5 95.5s-82.5 140.167 -82.5 229.5zM568.002 339.001c0 65.333 -18.167 121.333 -54.5 168s-86.5 70 -150.5 70
c-67.333 0 -120.5 -26 -159.5 -78s-58.5 -115.333 -58.5 -190c0 -64.667 18.333 -120.5 55 -167.5s86.667 -70.5 150 -70.5c67.333 0 120.5 26 159.5 78s58.5 115.333 58.5 190z" />
    <glyph glyph-name="R" unicode="R" horiz-adv-x="601" 
d="M482 0l-168.998 236c-24.667 -3.33301 -48.334 -5 -71.001 -5h-58v-231h-105v553l-10 95h216c81.333 0 143.666 -16.167 186.999 -48.5s65 -77.5 65 -135.5c0 -41.333 -11 -79 -33 -113s-53 -61 -93 -81l193 -270h-122zM431.002 456c0 64.667 -48.666 97 -145.999 97
h-101v-227h58c63.333 0 110.666 11.333 141.999 34s47 54.667 47 96z" />
    <glyph glyph-name="S" unicode="S" horiz-adv-x="521" 
d="M428 668l-0.00195312 -94.998c-20 2 -40 3 -60 3c-56 0 -104 -9.16699 -144 -27.5s-60 -44.166 -60 -77.499c0 -11.333 3.33301 -21.833 10 -31.5s18.167 -19 34.5 -28s30 -16 41 -21s28.833 -12.5 53.5 -22.5c54 -22 97.333 -47.5 130 -76.5s49 -66.167 49 -111.5
c0 -60 -22.167 -108.833 -66.5 -146.5s-101.166 -56.834 -170.499 -57.501c-75.333 0 -138.666 10 -189.999 30v100c56.667 -23.333 120 -35 190 -35c36.667 0 66.834 8.83301 90.501 26.5s35.5 42.834 35.5 75.501c0 7.33301 -1.33301 14.166 -4 20.499s-5.5 12 -8.5 17
s-8.16699 10.167 -15.5 15.5s-13.5 9.66602 -18.5 12.999s-12.833 7.33301 -23.5 12s-19 8.16699 -25 10.5l-28.5 11.5c-13 5.33301 -22.5 9 -28.5 11c-111.333 44 -167 102.667 -167 176c0 63.333 30.167 114.166 90.5 152.499s135.166 57.5 224.499 57.5
c26.667 0 47 -0.666992 61 -2z" />
    <glyph glyph-name="T" unicode="T" horiz-adv-x="502" 
d="M198 0v553h-201v95h508l-18 -95h-183v-553h-106z" />
    <glyph glyph-name="U" unicode="U" horiz-adv-x="663" 
d="M71 648l105 0.000976562v-426c0 -47.333 12.5 -84 37.5 -110s61.167 -39 108.5 -39c51.333 0 91.666 17.5 120.999 52.5s44 79.167 44 132.5v390l105 15v-394c0 -86 -24.667 -156.333 -74 -211s-114.666 -82 -195.999 -82c-70.667 0 -130.167 19.667 -178.5 59
s-72.5 96.666 -72.5 171.999v441z" />
    <glyph glyph-name="V" unicode="V" horiz-adv-x="647" 
d="M237 0l-213 648h114l167 -515l234 530l104 -29l-287 -634h-119z" />
    <glyph glyph-name="W" unicode="W" horiz-adv-x="960" 
d="M188 0l-163 648h108l122 -491l192 506l95 -31l13 -1l124 -474l186 506l98 -29l-238 -634h-111l-128 483l-187 -483h-111z" />
    <glyph glyph-name="X" unicode="X" horiz-adv-x="615" 
d="M6 32l242 300l-224 316h128l168 -238l204 262l85 -51l-231 -293l233 -328h-126l-179 251l-213 -270z" />
    <glyph glyph-name="Y" unicode="Y" horiz-adv-x="565" 
d="M226 0v281l-247 367h123l179 -269l215 290l85 -51l-250 -334v-284h-105z" />
    <glyph glyph-name="Z" unicode="Z" horiz-adv-x="534" 
d="M83 553v95h407v-95l-343 -458h352v-95h-421l-48 95l343 458h-290z" />
    <glyph glyph-name="bracketleft" unicode="[" horiz-adv-x="370" 
d="M79 -140v693l-10 95l246 14l6 -95l-137 -8v-604h117v-95h-222z" />
    <glyph glyph-name="bracketright" unicode="]" horiz-adv-x="370" 
d="M291 658v-693l10 -95l-246 -14l-6 95l137 8v604h-117v95h222z" />
    <glyph glyph-name="a" unicode="a" horiz-adv-x="462" 
d="M101 409l1 98.002c35.333 9.33301 72 14 110 14c130.667 0 196 -70 196 -210v-315h-21l-70 30c-38 -30.667 -81.333 -46 -130 -46c-49.333 0 -88 13 -116 39s-42 61.667 -42 107c0 60.667 26.167 107.167 78.5 139.5s117.833 51.166 196.5 56.499
c-4 68 -38.333 102 -103 102c-15.333 0 -31.333 -1.33301 -48 -4s-29.667 -5.33398 -39 -8.00098zM132 136.002c0 -20 6.16699 -35.665 18.5 -46.998s30.166 -17 53.499 -17c36.667 0 70.334 13 101.001 39v128c-48 -4.66699 -88.833 -15.334 -122.5 -32.001
s-50.5 -40.334 -50.5 -71.001z" />
    <glyph glyph-name="b" unicode="b" 
d="M165 665v-170.998c26.667 17.333 57.667 26 93 26c72 0 129.333 -21.333 172 -64s64 -101.334 64 -176.001c0 -84.667 -31.667 -155.834 -95 -213.501s-142 -86.5 -236 -86.5l-101 20v648zM261 427.002c-32.667 0 -64.667 -9.66602 -96 -28.999v-323
c70 0.666992 125.167 20.167 165.5 58.5s60.5 87.166 60.5 146.499c0 48 -12.5 84.5 -37.5 109.5s-55.833 37.5 -92.5 37.5z" />
    <glyph glyph-name="c" unicode="c" horiz-adv-x="410" 
d="M29 230c0 82 33.167 150.833 99.5 206.5s152.166 83.5 257.499 83.5v-96c-74.667 0 -135.667 -18 -183 -54s-71 -82.667 -71 -140c0 -43.333 13.833 -80 41.5 -110s68.5 -45 122.5 -45c35.333 0 65.333 3.66699 90 11v-84c-23.333 -14.667 -56.666 -22 -99.999 -22
c-80 0 -142.833 23.833 -188.5 71.5s-68.5 107.167 -68.5 178.5z" />
    <glyph glyph-name="d" unicode="d" 
d="M461 665l0.000976562 -670.002h-15l-65 28c-38.667 -28.667 -77.334 -43 -116.001 -43c-71.333 0 -128.5 21.333 -171.5 64s-64.5 101.334 -64.5 176.001c0 84 31.333 154.833 94 212.5s141 86.834 235 87.501v128zM272.001 72.998c29.333 0 58 9.66797 86 29.001v323
c-70 -0.666992 -125.167 -20.334 -165.5 -59.001s-60.5 -87.334 -60.5 -146.001c0 -47.333 13.5 -83.666 40.5 -108.999s60.167 -38 99.5 -38z" />
    <glyph glyph-name="e" unicode="e" horiz-adv-x="499" 
d="M29 228c0 84 23.502 153.668 70.502 209.001s104.5 83 172.5 83c46.667 0 85.667 -11.5 117 -34.5s53.166 -51.5 65.499 -85.5s18.5 -72 18.5 -114c0 -16 -1 -31.333 -3 -46l-338 -27c3.33301 -42.667 18.166 -76.334 44.499 -101.001s62.833 -37 109.5 -37
c56.667 0 104 8 142 24v-84c-30.667 -23.333 -85 -35 -163 -35c-67.333 0 -123.5 22.167 -168.5 66.5s-67.5 104.833 -67.5 181.5zM262.002 427.001c-27.333 0 -52.5 -11.832 -75.5 -35.499s-38.833 -55.5 -47.5 -95.5l228 23c0 31.333 -8.5 57.166 -25.5 77.499
s-43.5 30.5 -79.5 30.5z" />
    <glyph glyph-name="f" unicode="f" horiz-adv-x="336" 
d="M325 670v-97c-125.333 0 -188 -41.333 -188 -124c0 -8 0.666992 -19.333 2 -34h178l-20 -94h-140v-466h-103v482c0 1.33301 -1.66699 7.83301 -5 19.5s-6.83301 26.5 -10.5 44.5s-5.5 35 -5.5 51c0 64 26.167 116.333 78.5 157s123.5 61 213.5 61z" />
    <glyph glyph-name="g" unicode="g" horiz-adv-x="487" 
d="M29 289c0 66.667 18.334 121.833 55.001 165.5s87 65.5 151 65.5c51.333 0 94.333 -13.667 129 -41l80 56l54 -84l-79 -45c9.33301 -24 14 -48.333 14 -73c0 -85.333 -27 -149 -81 -191c60.667 -20 91 -54.667 91 -104c0 -62 -20.833 -110.5 -62.5 -145.5
s-103.834 -52.5 -186.501 -52.5c-44 0 -87.667 8.66699 -131 26v87c49.333 -10.667 94 -16 134 -16c48.667 0 85.167 8.16699 109.5 24.5s36.5 38.5 36.5 66.5c0 46.667 -35.667 71 -107 73h-10c-61.333 0 -109.5 18.5 -144.5 55.5s-52.5 81.167 -52.5 132.5z
M329.001 324.999c0 29.333 -8.16699 54.5 -24.5 75.5s-39.5 31.5 -69.5 31.5c-34 0 -59.667 -12.167 -77 -36.5s-26 -57.5 -26 -99.5c0 -29.333 8.16699 -54.5 24.5 -75.5s39.5 -31.5 69.5 -31.5c34 0 59.667 12.167 77 36.5s26 57.5 26 99.5z" />
    <glyph glyph-name="h" unicode="h" horiz-adv-x="529" 
d="M163 665l-0.000976562 -172.999c33.333 18.667 67 28 101 28c70.667 0 123.334 -17.333 158.001 -52s52 -80.334 52 -137.001v-331h-103v318c0 72.667 -38.333 109 -115 109c-34 0 -65 -9.66699 -93 -29v-398h-103v648z" />
    <glyph glyph-name="i" unicode="i" horiz-adv-x="248" 
d="M84 0v411h-73v79l73 10l103 19v-519h-103zM89 570l14 139l110 -13l-23 -111z" />
    <glyph glyph-name="j" unicode="j" horiz-adv-x="258" 
d="M-43 -160l-0.000976562 95c91.333 0 137 36.333 137 109v366h-73v80l73 10l103 19v-488c0 -55.333 -20.167 -101 -60.5 -137s-100.166 -54 -179.499 -54zM98.999 570l14 139l110 -14l-23 -110z" />
    <glyph glyph-name="k" unicode="k" horiz-adv-x="495" 
d="M164 665v-665h-102v648zM382 0l-212 249c22 65.333 59.833 123.166 113.5 173.499s110.5 82.5 170.5 96.5l14 -93c-38.667 -11.333 -74.5 -31.166 -107.5 -59.499s-59.167 -61.833 -78.5 -100.5l221 -266h-121z" />
    <glyph glyph-name="l" unicode="l" horiz-adv-x="300" 
d="M281 88l1.00195 -83.999c-10 -6 -25 -11.5 -45 -16.5s-38.333 -7.5 -55 -7.5c-42.667 0 -73.334 12 -92.001 36s-28 62.333 -28 115v517l103 17v-521c0 -26.667 2.5 -44.834 7.5 -54.501s14.833 -14.5 29.5 -14.5c29.333 0 55.666 4.33301 78.999 13z" />
    <glyph glyph-name="m" unicode="m" horiz-adv-x="760" 
d="M239 427c-24.667 0 -49.333 -9.33301 -74 -28v-399h-103v505h35l40 -23c14 10.667 31.5 19.667 52.5 27s39.5 11 55.5 11c62 0 110 -18 144 -54c40.667 36 83.334 54 128.001 54c59.333 0 105.833 -16.5 139.5 -49.5s50.5 -76.167 50.5 -129.5v-341h-103v328
c0 30.667 -7.83301 54.834 -23.5 72.501s-38.834 26.5 -69.501 26.5c-29.333 0 -56.666 -12 -81.999 -36c4 -16 6 -32.667 6 -50v-341h-103v328c0 31.333 -7.83301 55.666 -23.5 72.999s-38.834 26 -69.501 26z" />
    <glyph glyph-name="n" unicode="n" horiz-adv-x="529" 
d="M163 398v-398h-103v505h26l47 -24c15.333 12.667 35.5 22.334 60.5 29.001s47.833 10 68.5 10c71.333 0 124.5 -17.333 159.5 -52s52.5 -80.334 52.5 -137.001v-331h-103v318c0 72.667 -38.333 109 -115 109c-34 0 -65 -9.66699 -93 -29z" />
    <glyph glyph-name="o" unicode="o" horiz-adv-x="552" 
d="M29 232c0 82.667 22.5 151.334 67.5 206.001s106.5 82 184.5 82c75.333 0 134.5 -24.667 177.5 -74s64.5 -108.666 64.5 -177.999c0 -82.667 -22.5 -151.334 -67.5 -206.001s-106.5 -82 -184.5 -82c-75.333 0 -134.5 24.667 -177.5 74s-64.5 108.666 -64.5 177.999z
M420 260c0 46 -12 85.167 -36 117.5s-58.333 48.5 -103 48.5c-49.333 0 -86.5 -16.333 -111.5 -49s-37.5 -78.334 -37.5 -137.001c0 -46 12 -85.167 36 -117.5s58.333 -48.5 103 -48.5c49.333 0 86.5 16.333 111.5 49s37.5 78.334 37.5 137.001z" />
    <glyph glyph-name="p" unicode="p" 
d="M61 -145v650.002h26l44 -22c38 24.667 80 37 126 37c71.333 0 128.5 -21.667 171.5 -65s64.5 -102.333 64.5 -177c0 -84.667 -31.333 -155.334 -94 -212.001s-141 -85.334 -235 -86.001v-125h-103zM250 427.002c-29.333 0 -58 -9.66797 -86 -29.001v-323
c70 0.666992 125.167 19.834 165.5 57.501s60.5 86.167 60.5 145.5c0 48 -13.667 84.833 -41 110.5s-60.333 38.5 -99 38.5z" />
    <glyph glyph-name="q" unicode="q" 
d="M358 -145v148.999c-28 -16 -59 -24 -93 -24c-71.333 0 -128.5 21.333 -171.5 64s-64.5 101.334 -64.5 176.001c0 82 31.667 151 95 207s142 84 236 84h24l77 -38v-618h-103zM272 72.999c29.333 0 58 9.66602 86 28.999v314c-70 -0.666992 -125.167 -19.5 -165.5 -56.5
s-60.5 -83.5 -60.5 -139.5c0 -47.333 13.5 -83.666 40.5 -108.999s60.167 -38 99.5 -38z" />
    <glyph glyph-name="r" unicode="r" horiz-adv-x="344" 
d="M61 0v505h26l68 -42c58.667 36.667 123.667 55.667 195 57v-97c-74.667 0 -136.667 -17.667 -186 -53v-370h-103z" />
    <glyph glyph-name="s" unicode="s" horiz-adv-x="420" 
d="M29 -4l-0.00195312 96.9971c45.333 -10.667 90 -16 134 -16c35.333 0 64.333 5.83301 87 17.5s34 25.5 34 41.5c0 23.333 -32.333 45 -97 65c-21.333 6.66699 -39 12.834 -53 18.501s-29 13.667 -45 24s-28.167 23 -36.5 38s-12.5 32.5 -12.5 52.5
c0 116.667 102.667 178.667 308 186v-96c-57.333 0 -105.166 -6.16699 -143.499 -18.5s-57.5 -31.166 -57.5 -56.499c0 -23.333 30.667 -45 92 -65c22.667 -7.33301 40.834 -13.833 54.501 -19.5s29 -13.667 46 -24s29.833 -23 38.5 -38s13 -32.167 13 -51.5
c0 -51.333 -22.667 -92.666 -68 -123.999s-99.333 -47 -162 -47c-48.667 0 -92.667 5.33301 -132 16z" />
    <glyph glyph-name="t" unicode="t" horiz-adv-x="373" 
d="M254 84c37.333 0 70.667 4.33301 100 13v-93c-30 -10 -66.667 -15 -110 -15c-64.667 0 -112.5 17 -143.5 51s-46.5 77.667 -46.5 131v459l103 15v-160h190l-20 -94h-170v-207c0 -66.667 32.333 -100 97 -100z" />
    <glyph glyph-name="u" unicode="u" horiz-adv-x="529" 
d="M266 -20c-70.667 0 -123.5 17.333 -158.5 52s-52.5 80.334 -52.5 137.001v331h102v-318c0 -72.667 38.667 -109 116 -109c34 0 65 9.66699 93 29v398l102 14v-519h-25l-50 24c-18 -10.667 -39.333 -19.834 -64 -27.501s-45.667 -11.5 -63 -11.5z" />
    <glyph glyph-name="v" unicode="v" horiz-adv-x="505" 
d="M491 488l-203 -488h-110l-162 500h110l112 -371l154 393z" />
    <glyph glyph-name="w" unicode="w" horiz-adv-x="796" 
d="M490 0l-97 340l-124 -340h-110l-143 500h108l96 -363l127 363h108l96 -362l132 384l95 -34l-178 -488h-110z" />
    <glyph glyph-name="x" unicode="x" horiz-adv-x="515" 
d="M147 500l121 -172l161 195l70 -63l-176 -210l176 -250h-120l-126 180l-172 -202l-75 63l192 217l-169 242h118z" />
    <glyph glyph-name="y" unicode="y" horiz-adv-x="480" 
d="M41 -106l121 155.998l-146 450h110l111 -356l26 37c30.667 42.667 54 89.334 70 140.001s24 96.334 24 137.001c0 12.667 -1 24 -3 34l104 17c2.66699 -13.333 4 -29.333 4 -48c0 -102.667 -47.333 -221 -142 -355l-187 -266z" />
    <glyph glyph-name="z" unicode="z" horiz-adv-x="452" 
d="M64 0l-52 81l291 325h-249l20 94h353v-94l-279 -312h296l-20 -94h-360z" />
    <glyph glyph-name="braceleft" unicode="{" horiz-adv-x="351" 
d="M282 -64l-0.000976562 -96.001c-126 0 -189 49.333 -189 148c0 25.333 8.33301 53.5 25 84.5s25 53.5 25 67.5c0 24 -11 41.167 -33 51.5s-49 15.5 -81 15.5l10 95c29.333 0 54 4.5 74 13.5s30 22.5 30 40.5c0 9.33301 -7.5 22 -22.5 38s-30 34.5 -45 55.5
s-22.5 41.833 -22.5 62.5c0 38.667 18.833 74.334 56.5 107.001s91.834 49 162.501 49v-96c-36 0 -62.667 -6.5 -80 -19.5s-26 -29.5 -26 -49.5s13 -46.667 39 -80s39 -59.333 39 -78c0 -48 -23.667 -78 -71 -90c47.333 -12 71 -43.333 71 -94
c0 -18 -6.33301 -44.333 -19 -79s-19 -60 -19 -76c0 -24.667 5.66699 -42.5 17 -53.5s31 -16.5 59 -16.5z" />
    <glyph glyph-name="braceright" unicode="}" horiz-adv-x="351" 
d="M99 572l-0.00195312 95.999c67.333 0 117.333 -12.5 150 -37.5s49 -58.833 49 -101.5c0 -22 -6.66699 -43 -20 -63s-26.666 -38 -39.999 -54s-20 -30.333 -20 -43c0 -24 10.167 -41.167 30.5 -51.5s44.833 -15.5 73.5 -15.5l-10 -95c-24 0 -44 -4.5 -60 -13.5
s-24 -22.5 -24 -40.5c0 -8.66699 3.33301 -30.167 10 -64.5s10 -64.833 10 -91.5c0 -38.667 -15.333 -74.334 -46 -107.001s-75 -49 -133 -49v96c50.667 0 76 23 76 69c0 20 -3 46.667 -9 80s-9 59.333 -9 78c0 48.667 20 78.667 60 90c-23.333 6 -40.833 16.167 -52.5 30.5
s-17.5 35.5 -17.5 63.5c0 24 6.5 46.333 19.5 67s26 38.834 39 54.501s19.5 29.834 19.5 42.501c0 20 -7.16699 35 -21.5 45s-39.166 15 -74.499 15z" />
    <glyph glyph-name="uni0404" unicode="&#x404;" horiz-adv-x="557" 
d="M520 647l-0.00292969 -95c-50 16.667 -101.667 25 -155 25c-60 0 -108.5 -18.667 -145.5 -56s-60.5 -85.333 -70.5 -144h322l-15 -95h-309c6.66699 -62 28.334 -112.667 65.001 -152s83.334 -59 140.001 -59s116 15 178 45v-95c-51.333 -30 -110.666 -45 -177.999 -45
c-95.333 0 -171.333 32.167 -228 96.5s-85 143.833 -85 238.5c0 102.667 29.167 188.5 87.5 257.5s137.833 103.5 238.5 103.5c56 0 107.667 -8.33301 155 -25z" />
    <glyph glyph-name="uni0406" unicode="&#x406;" horiz-adv-x="263" 
d="M79 0v648h105v-648h-105z" />
    <glyph glyph-name="uni0407" unicode="&#x407;" horiz-adv-x="263" 
d="M174 679l14 111l110 -9l-23 -92zM0 669v121h110l-9 -101zM79 0v648h105v-648h-105z" />
    <glyph glyph-name="uni0410" unicode="&#x410;" horiz-adv-x="649" 
d="M413 648l221 -648h-114l-61 181h-270l-91 -198l-104 31l300 634h119zM344 520l-112 -244h195z" />
    <glyph glyph-name="uni0411" unicode="&#x411;" horiz-adv-x="579" 
d="M550 227c0 -66.667 -25 -121.167 -75 -163.5s-123 -63.5 -219 -63.5h-177v553l-10 95h427l-14 -95h-298v-165h115c84.667 0 147.667 -14.5 189 -43.5s62 -68.167 62 -117.5zM444 219c0 55.333 -48.333 83 -145 83h-115v-207h72c64.667 0 112.167 11.167 142.5 33.5
s45.5 52.5 45.5 90.5z" />
    <glyph glyph-name="uni0412" unicode="&#x412;" horiz-adv-x="584" 
d="M79 0v553.001l-10 95h200c84.667 0 147.667 -14.833 189 -44.5s62 -70.167 62 -121.5c0 -60.667 -30.667 -107.334 -92 -140.001c81.333 -24 122 -70.667 122 -140c0 -58.667 -25 -107 -75 -145s-123 -57 -219 -57h-177zM444 194.001c0 27.333 -12.333 48.833 -37 64.5
s-60.667 23.5 -108 23.5h-115v-187h72c64.667 0 112.167 9 142.5 27s45.5 42 45.5 72zM414 474.001c0 52.667 -48.333 79 -145 79h-85v-176h115c30 0 56.667 9.5 80 28.5s35 41.833 35 68.5z" />
    <glyph glyph-name="uni0413" unicode="&#x413;" horiz-adv-x="496" 
d="M79 0v553l-10 95h422l-14 -95h-293v-553h-105z" />
    <glyph glyph-name="uni0414" unicode="&#x414;" horiz-adv-x="654" 
d="M134 553v95h429l-10 -95v-458h92l-54 -235h-104l31 140h-410v-140h-104v235h66l196 458h-132zM374 553l-202 -458h276v458h-74z" />
    <glyph glyph-name="uni0415" unicode="&#x415;" horiz-adv-x="545" 
d="M79 0v553l-10 95h432v-95h-317v-171h277l-15 -95h-262v-192h327v-95h-432z" />
    <glyph glyph-name="uni0416" unicode="&#x416;" horiz-adv-x="836" 
d="M699 0l-232 324l255 341l81 -55l-217 -280l243 -330h-130zM134 648l211 -324l-254 -345l-88 53l223 293l-208 323h116zM354 0v648h104v-648h-104z" />
    <glyph glyph-name="uni0417" unicode="&#x417;" horiz-adv-x="535" 
d="M31 1v95c53.333 -16.667 107.666 -25 162.999 -25c62 0 108.5 10.833 139.5 32.5s46.5 51.834 46.5 90.501c0 27.333 -12.333 48.833 -37 64.5s-60.667 23.5 -108 23.5h-116l10 95h106c30 0 56.667 10.5 80 31.5s35 46.167 35 75.5c0 62 -47.333 93 -142 93
c-51.333 0 -106.333 -11.667 -165 -35v95c48.667 23.333 103.667 35 165 35c84 0 146.333 -16.333 187 -49s61 -76.334 61 -131.001c0 -60.667 -28.333 -108.667 -85 -144c76.667 -26 115 -74.667 115 -146c0 -68 -25.167 -122.667 -75.5 -164s-122.5 -62 -216.5 -62
c-57.333 0 -111.666 8.33301 -162.999 25z" />
    <glyph glyph-name="uni0418" unicode="&#x418;" horiz-adv-x="702" 
d="M623 663v-663h-105v453l6 51l-331 -504h-114v648h105v-453l-5 -50l330 503z" />
    <glyph glyph-name="uni0419" unicode="&#x419;" horiz-adv-x="702" 
d="M623 663v-663h-105v453l6 51l-331 -504h-114v648h105v-453l-5 -50l330 503zM491 812l30 -78c-24 -17.333 -52.667 -32 -86 -44s-66 -18 -98 -18c-81.333 0 -135.333 33.667 -162 101l76 51c18 -40.667 49 -61 93 -61c43.333 0 92.333 16.333 147 49z" />
    <glyph glyph-name="uni041A" unicode="&#x41a;" horiz-adv-x="606" 
d="M473 0l-281 324l287 346l80 -62l-238 -274l286 -334h-134zM79 0v648h105v-648h-105z" />
    <glyph glyph-name="uni041B" unicode="&#x41b;" horiz-adv-x="625" 
d="M119 553l-0.000976562 94.999h437l-10 -95v-553h-105v553h-98l-88 -294c-37.333 -123.333 -99.666 -218.333 -186.999 -285l-76 80c36.667 24.667 69.667 57.334 99 98.001s50.333 82 63 124l84 277h-119z" />
    <glyph glyph-name="uni041C" unicode="&#x41c;" horiz-adv-x="854" 
d="M670 0v511l-254 -404l-202 369l-77 -476h-109l96 560l-25 88h139l186 -353l219 353l132 15v-663h-105z" />
    <glyph glyph-name="uni041D" unicode="&#x41d;" horiz-adv-x="679" 
d="M79 0v648h105v-262h311v262l105 15v-663h-105v291h-311v-291h-105z" />
    <glyph glyph-name="uni041E" unicode="&#x41e;" horiz-adv-x="713" 
d="M39 301c0 102.667 29.668 190.167 89.001 262.5s137.666 108.5 234.999 108.5s173.5 -31.833 228.5 -95.5s82.5 -140.167 82.5 -229.5c0 -104.667 -29.5 -192.667 -88.5 -264s-137.5 -107 -235.5 -107c-97.333 0 -173.5 31.833 -228.5 95.5s-82.5 140.167 -82.5 229.5z
M568.001 339c0 65.333 -18.167 121.333 -54.5 168s-86.5 70 -150.5 70c-67.333 0 -120.5 -26 -159.5 -78s-58.5 -115.333 -58.5 -190c0 -64.667 18.333 -120.5 55 -167.5s86.667 -70.5 150 -70.5c67.333 0 120.5 26 159.5 78s58.5 115.333 58.5 190z" />
    <glyph glyph-name="uni041F" unicode="&#x41f;" horiz-adv-x="669" 
d="M485 0v553h-301v-553h-105v648h521l-10 -95v-553h-105z" />
    <glyph glyph-name="uni0420" unicode="&#x420;" horiz-adv-x="579" 
d="M550 447c0 -74.667 -26.499 -135.834 -79.499 -183.501s-127.833 -71.5 -224.5 -71.5h-62v-192h-105v553l-10 95h220c85.333 0 150.166 -18.167 194.499 -54.5s66.5 -85.166 66.5 -146.499zM444.001 439c0 36 -12.832 64 -38.499 84s-64.5 30 -116.5 30h-105v-266h62
c65.333 0 114.666 14 147.999 42s50 64.667 50 110z" />
    <glyph glyph-name="uni0421" unicode="&#x421;" horiz-adv-x="550" 
d="M516 647v-94.999c-50 16.667 -101 25 -153 25c-69.333 0 -123 -24.833 -161 -74.5s-57 -110.834 -57 -183.501c0 -70.667 18.667 -129.667 56 -177s87 -71 149 -71c55.333 0 114 15 176 45v-95c-50.667 -30 -109.334 -45 -176.001 -45c-95.333 0 -171 32 -227 96
s-84 143.667 -84 239c0 102.667 28.833 188.5 86.5 257.5s136.834 103.5 237.501 103.5c54.667 0 105.667 -8.33301 153 -25z" />
    <glyph glyph-name="uni0422" unicode="&#x422;" horiz-adv-x="502" 
d="M198 0v553h-201v95h508l-18 -95h-183v-553h-106z" />
    <glyph glyph-name="uni0423" unicode="&#x423;" horiz-adv-x="593" 
d="M84 64c24.667 -10 52.332 -15 82.999 -15c36.667 0 70.334 25 101.001 75l-264 524h114l204 -405l178 423l104 -29l-214 -483c-27.333 -62 -58.5 -110.833 -93.5 -146.5s-78.167 -53.5 -129.5 -53.5c-34 0 -61.667 5 -83 15v95z" />
    <glyph glyph-name="uni0424" unicode="&#x424;" horiz-adv-x="739" 
d="M715 341c0 -81.333 -25.667 -146.831 -77 -196.498s-123.333 -76.834 -216 -81.501v-63h-105v62h-17c-82.667 0 -149.334 22.5 -200.001 67.5s-76 103.5 -76 175.5c0 81.333 25.5 146.666 76.5 195.999s123.167 76.333 216.5 81v66l105 15v-81c3.33301 0.666992 9 1 17 1
c82.667 0 149.334 -22.333 200.001 -67s76 -103 76 -175zM130 315.002c0 -49.333 15.667 -88.833 47 -118.5s73 -44.5 125 -44.5h15v340c-61.333 -4.66699 -107.833 -22.5 -139.5 -53.5s-47.5 -72.167 -47.5 -123.5zM609 331.002c0 49.333 -15.5 88.668 -46.5 118.001
s-72.833 44 -125.5 44h-15v-340c60.667 4.66699 107 22.667 139 54s48 72.666 48 123.999z" />
    <glyph glyph-name="uni0425" unicode="&#x425;" horiz-adv-x="615" 
d="M6 32l242 300l-224 316h128l168 -238l204 262l85 -51l-231 -293l233 -328h-126l-179 251l-213 -270z" />
    <glyph glyph-name="uni0426" unicode="&#x426;" horiz-adv-x="701" 
d="M534 -140l31 140h-486l10 95v553h105v-553h301v553l105 15v-568h92l-54 -235h-104z" />
    <glyph glyph-name="uni0427" unicode="&#x427;" horiz-adv-x="605" 
d="M421 0v277c-41.333 -16 -85.333 -24 -132 -24c-74.667 0 -131.667 17.667 -171 53s-59 86 -59 152v190h105v-182c0 -78.667 45 -118 135 -118c41.333 0 82 8 122 24v276l105 15v-663h-105z" />
    <glyph glyph-name="uni0428" unicode="&#x428;" horiz-adv-x="853" 
d="M59 95v553h105v-553h200v553h105v-553h200v553l105 15v-663h-725z" />
    <glyph glyph-name="uni0429" unicode="&#x429;" horiz-adv-x="875" 
d="M708 -140l31 140h-690l10 95v553h105v-553h200v553h105v-553h200v553l105 15v-568h92l-54 -235h-104z" />
    <glyph glyph-name="uni042C" unicode="&#x42c;" horiz-adv-x="575" 
d="M548 247c0 -74 -26.333 -133.667 -79 -179s-127.667 -68 -225 -68h-175l10 95v553h105v-208c44 1.33301 78.333 2 103 2c86 0 151 -17.5 195 -52.5s66 -82.5 66 -142.5zM442 239c0 72 -51.668 108.001 -155.001 108.001c-24.667 0 -59 -0.666992 -103 -2v-250h60
c66.667 0 116.334 12.667 149.001 38s49 60.666 49 105.999z" />
    <glyph glyph-name="uni042E" unicode="&#x42e;" horiz-adv-x="899" 
d="M79 0v648h105v-260h110c14.667 83.333 47.667 151.833 99 205.5s113.333 80.5 186 80.5c86 0 154.333 -31.833 205 -95.5s76 -140.834 76 -231.501c0 -105.333 -27.167 -193.5 -81.5 -264.5s-124.5 -106.5 -210.5 -106.5c-84 0 -151.333 30.333 -202 91
s-77 135.334 -79 224.001h-103v-291h-105zM568 73c60 0 106.167 25.833 138.5 77.5s48.5 114.5 48.5 188.5c0 64.667 -15 120.5 -45 167.5s-73.667 70.5 -131 70.5c-60 0 -106.167 -26.167 -138.5 -78.5s-48.5 -115.5 -48.5 -189.5c0 -40.667 6 -78.167 18 -112.5
s31.667 -63.5 59 -87.5s60.333 -36 99 -36z" />
    <glyph glyph-name="uni042F" unicode="&#x42f;" horiz-adv-x="615" 
d="M547 648l-10.001 -95v-553h-105v251h-116l-188 -271l-93 52l176 237c-43.333 12.667 -76.666 33.167 -99.999 61.5s-35 61.833 -35 100.5c0 63.333 25 115.333 75 156s123 61 219 61h177zM181.999 439c0 -62 48.333 -92.999 145 -92.999h105v207h-62
c-64.667 0 -112.167 -10.333 -142.5 -31s-45.5 -48.334 -45.5 -83.001z" />
    <glyph glyph-name="uni0430" unicode="&#x430;" horiz-adv-x="462" 
d="M101 409l1 98.002c35.333 9.33301 72 14 110 14c130.667 0 196 -70 196 -210v-315h-21l-70 30c-38 -30.667 -81.333 -46 -130 -46c-49.333 0 -88 13 -116 39s-42 61.667 -42 107c0 60.667 26.167 107.167 78.5 139.5s117.833 51.166 196.5 56.499
c-4 68 -38.333 102 -103 102c-15.333 0 -31.333 -1.33301 -48 -4s-29.667 -5.33398 -39 -8.00098zM132 136.002c0 -20 6.16699 -35.665 18.5 -46.998s30.166 -17 53.499 -17c36.667 0 70.334 13 101.001 39v128c-48 -4.66699 -88.833 -15.334 -122.5 -32.001
s-50.5 -40.334 -50.5 -71.001z" />
    <glyph glyph-name="uni0431" unicode="&#x431;" horiz-adv-x="544" 
d="M506 236c0 -72 -20.667 -132.668 -62 -182.001s-99.333 -74 -174 -74c-72 0 -130 23.333 -174 70s-66 113 -66 199c0 89.333 12.667 162 38 218s68 99.333 128 130c22.667 11.333 62 23 118 35s93 23 111 33l32 27l10 -113c-22.667 -16 -64.667 -29.667 -126 -41
s-100.333 -21.666 -117 -30.999c-40 -22 -65.667 -59.667 -77 -113c47.333 35.333 94.333 53 141 53c62.667 0 114.667 -19.167 156 -57.5s62 -89.5 62 -153.5zM403 227.999c-0.666992 41.333 -11.667 72.499 -33 93.499s-50.666 31.5 -87.999 31.5
c-48.667 0 -98 -20.667 -148 -62c-1.33301 -6 -2 -16.333 -2 -31c0 -59.333 12.667 -105.166 38 -137.499s58.666 -48.5 99.999 -48.5c43.333 0 76.333 15 99 45s34 66.333 34 109z" />
    <glyph glyph-name="uni0432" unicode="&#x432;" horiz-adv-x="511" 
d="M61 0v411l-20 89h205c60 0 108 -11.5 144 -34.5s54 -53.5 54 -91.5c0 -44 -19 -79.333 -57 -106c60 -18 90 -51.667 90 -101c0 -53.333 -22 -94.5 -66 -123.5s-100.667 -43.5 -170 -43.5h-180zM374 157c0 18 -8.16699 31.833 -24.5 41.5s-36.833 14.5 -61.5 14.5h-124
v-124h79c40 0 71.833 6.33301 95.5 19s35.5 29 35.5 49zM341 364c0 31.333 -31.667 47 -95 47h-82v-110h142c23.333 15.333 35 36.333 35 63z" />
    <glyph glyph-name="uni0433" unicode="&#x433;" horiz-adv-x="382" 
d="M61 0v411l-20 89h342v-89h-219v-411h-103z" />
    <glyph glyph-name="uni0434" unicode="&#x434;" horiz-adv-x="560" 
d="M403 -130l29 130h-325v-126h-102v215h48c48.667 79.333 83 157 103 233l22 86l-84 -1v93h269l103 15v-426h90l-50 -219h-103zM251 307c-22 -76.667 -52.667 -149.333 -92 -218h204v321l-83 -1z" />
    <glyph glyph-name="uni0435" unicode="&#x435;" horiz-adv-x="499" 
d="M29 228c0 84 23.502 153.668 70.502 209.001s104.5 83 172.5 83c46.667 0 85.667 -11.5 117 -34.5s53.166 -51.5 65.499 -85.5s18.5 -72 18.5 -114c0 -16 -1 -31.333 -3 -46l-338 -27c3.33301 -42.667 18.166 -76.334 44.499 -101.001s62.833 -37 109.5 -37
c56.667 0 104 8 142 24v-84c-30.667 -23.333 -85 -35 -163 -35c-67.333 0 -123.5 22.167 -168.5 66.5s-67.5 104.833 -67.5 181.5zM262.002 427.001c-27.333 0 -52.5 -11.832 -75.5 -35.499s-38.833 -55.5 -47.5 -95.5l228 23c0 31.333 -8.5 57.166 -25.5 77.499
s-43.5 30.5 -79.5 30.5z" />
    <glyph glyph-name="uni0436" unicode="&#x436;" horiz-adv-x="703" 
d="M587 0l-177 252l213 271l68 -63l-165 -206l181 -254h-120zM143 500l149 -251l-213 -271l-73 63l172 215l-153 244h118zM403 500v-500h-103v500h103z" />
    <glyph glyph-name="uni0437" unicode="&#x437;" horiz-adv-x="406" 
d="M249 364c0 39.333 -31.667 58.9971 -95 58.9971c-8.66699 0 -17.5 -0.333008 -26.5 -1s-17.333 -1.66699 -25 -3l-22 -4c-7 -1.33301 -13.333 -2.66602 -19 -3.99902s-10.5 -2.66602 -14.5 -3.99902l-9 -3l-4 -1v94c34 15.333 77.333 23 130 23
c63.333 0 110.5 -13 141.5 -39s46.5 -61.667 46.5 -107c0 -39.333 -14.667 -73 -44 -101c49.333 -19.333 74 -54.666 74 -105.999c0 -54.667 -21.333 -99.5 -64 -134.5s-97.334 -52.5 -164.001 -52.5c-46 0 -89.667 6.66699 -131 20v93c49.333 -10.667 94 -16 134 -16
c38.667 0 68.667 7.66699 90 23s32 34.333 32 57c0 18 -7.16699 31.833 -21.5 41.5s-32.166 14.5 -53.499 14.5h-112l15 88h111c20.667 15.333 31 36.333 31 63z" />
    <glyph glyph-name="uni0438" unicode="&#x438;" horiz-adv-x="568" 
d="M61 10v490h103v-316l-7 -47l261 363h101l-9 -54v-446h-103v314l5 34l-259 -358z" />
    <glyph glyph-name="uni0439" unicode="&#x439;" horiz-adv-x="568" 
d="M61 10v490h103v-316l-7 -47l261 363h101l-9 -54v-446h-103v314l5 34l-259 -358zM437 697l30 -78c-24 -17.333 -52.667 -32 -86 -44s-66 -18 -98 -18c-81.333 0 -135.333 33.667 -162 101l76 51c18 -40.667 49 -61 93 -61c43.333 0 92.333 16.333 147 49z" />
    <glyph glyph-name="uni043A" unicode="&#x43a;" horiz-adv-x="493" 
d="M380 0l-212 249l233 271l67 -62l-179 -202l213 -256h-122zM164 500v-500h-103v500h103z" />
    <glyph glyph-name="uni043B" unicode="&#x43b;" horiz-adv-x="518" 
d="M58 -25l-66.001 70.998c31.333 24 61.333 57.833 90 101.5s49.334 84.834 62.001 123.501l44 138l-92 -1v92h258l103 15v-515h-103v410h-65l-51 -161c-38.667 -117.333 -98.667 -208.666 -180 -273.999z" />
    <glyph glyph-name="uni043C" unicode="&#x43c;" horiz-adv-x="693" 
d="M532 0l-10 314l2 35l-191 -311l-166 282l-30 -320h-100l51 420l-45 80h131l161 -291l177 291l103 15l20 -515h-103z" />
    <glyph glyph-name="uni043D" unicode="&#x43d;" horiz-adv-x="541" 
d="M61 0v500h103v-197h213v197l103 15v-515h-103v213h-213v-213h-103z" />
    <glyph glyph-name="uni043E" unicode="&#x43e;" horiz-adv-x="552" 
d="M29 232c0 82.667 22.5 151.334 67.5 206.001s106.5 82 184.5 82c75.333 0 134.5 -24.667 177.5 -74s64.5 -108.666 64.5 -177.999c0 -82.667 -22.5 -151.334 -67.5 -206.001s-106.5 -82 -184.5 -82c-75.333 0 -134.5 24.667 -177.5 74s-64.5 108.666 -64.5 177.999z
M420 260c0 46 -12 85.167 -36 117.5s-58.333 48.5 -103 48.5c-49.333 0 -86.5 -16.333 -111.5 -49s-37.5 -78.334 -37.5 -137.001c0 -46 12 -85.167 36 -117.5s58.333 -48.5 103 -48.5c49.333 0 86.5 16.333 111.5 49s37.5 78.334 37.5 137.001z" />
    <glyph glyph-name="uni043F" unicode="&#x43f;" horiz-adv-x="531" 
d="M61 0v500h306l103 15v-515h-103v411h-203v-411h-103z" />
    <glyph glyph-name="uni0440" unicode="&#x440;" 
d="M61 -145v650.002h26l44 -22c38 24.667 80 37 126 37c71.333 0 128.5 -21.667 171.5 -65s64.5 -102.333 64.5 -177c0 -84.667 -31.333 -155.334 -94 -212.001s-141 -85.334 -235 -86.001v-125h-103zM250 427.002c-29.333 0 -58 -9.66797 -86 -29.001v-323
c70 0.666992 125.167 19.834 165.5 57.501s60.5 86.167 60.5 145.5c0 48 -13.667 84.833 -41 110.5s-60.333 38.5 -99 38.5z" />
    <glyph glyph-name="uni0441" unicode="&#x441;" horiz-adv-x="410" 
d="M29 230c0 82 33.167 150.833 99.5 206.5s152.166 83.5 257.499 83.5v-96c-74.667 0 -135.667 -18 -183 -54s-71 -82.667 -71 -140c0 -43.333 13.833 -80 41.5 -110s68.5 -45 122.5 -45c35.333 0 65.333 3.66699 90 11v-84c-23.333 -14.667 -56.666 -22 -99.999 -22
c-80 0 -142.833 23.833 -188.5 71.5s-68.5 107.167 -68.5 178.5z" />
    <glyph glyph-name="uni0442" unicode="&#x442;" horiz-adv-x="440" 
d="M170 0v411h-156v89h426l-22 -89h-145v-411h-103z" />
    <glyph glyph-name="uni0443" unicode="&#x443;" horiz-adv-x="480" 
d="M41 -106l121 155.998l-146 450h110l111 -356l26 37c30.667 42.667 54 89.334 70 140.001s24 96.334 24 137.001c0 12.667 -1 24 -3 34l104 17c2.66699 -13.333 4 -29.333 4 -48c0 -102.667 -47.333 -221 -142 -355l-187 -266z" />
    <glyph glyph-name="uni0444" unicode="&#x444;" horiz-adv-x="681" 
d="M289 -145v124.999h-5c-76.667 0 -138.334 24.333 -185.001 73s-70 113.334 -70 194.001c0 66.667 24 124.167 72 172.5s110.667 79.5 188 93.5v135l103 17v-145h5c77.333 0 139.333 -23.5 186 -70.5s70 -109.167 70 -186.5c0 -69.333 -24.167 -129 -72.5 -179
s-111.166 -82 -188.499 -96v-133h-103zM550 262.999c0 50.667 -15.5 90.499 -46.5 119.499s-68.167 43.833 -111.5 44.5v-344c50 12 88.833 33.833 116.5 65.5s41.5 69.834 41.5 114.501zM132 246.998c0 -54 15.333 -96.333 46 -127s67.667 -46.334 111 -47.001v343
c-50 -10.667 -88.667 -31.167 -116 -61.5s-41 -66.166 -41 -107.499z" />
    <glyph glyph-name="uni0445" unicode="&#x445;" horiz-adv-x="515" 
d="M147 500l121 -172l161 195l70 -63l-176 -210l176 -250h-120l-126 180l-172 -202l-75 63l192 217l-169 242h118z" />
    <glyph glyph-name="uni0446" unicode="&#x446;" horiz-adv-x="564" 
d="M407 -130l29 130h-385l10 89v411h103v-411h203v411l103 15v-426h90l-50 -219h-103z" />
    <glyph glyph-name="uni0447" unicode="&#x447;" horiz-adv-x="494" 
d="M330 0v208.999c-38.667 -19.333 -75 -29 -109 -29c-70 0 -119.5 16.833 -148.5 50.5s-43.5 79.834 -43.5 138.501v131h103v-118c0 -38.667 7.33301 -66.5 22 -83.5s39 -25.5 73 -25.5c16 0 34.333 2.83301 55 8.5s36.667 12.5 48 20.5v198l103 15v-515h-103z" />
    <glyph glyph-name="uni0448" unicode="&#x448;" horiz-adv-x="737" 
d="M676 515v-515h-635l20 89v411h103v-411h153v411h103v-411h153v411z" />
    <glyph glyph-name="uni0449" unicode="&#x449;" horiz-adv-x="770" 
d="M613 -130l29 130h-601l20 89v411h103v-411h153v411h103v-411h153v411l103 15v-426h90l-50 -219h-103z" />
    <glyph glyph-name="uni044C" unicode="&#x44c;" horiz-adv-x="486" 
d="M41 0l19.999 89v411h103v-169h113c54.667 0 99.167 -12.5 133.5 -37.5s51.5 -59.5 51.5 -103.5c0 -57.333 -24.667 -103.333 -74 -138s-119.666 -52 -210.999 -52h-136zM358.999 180c0 18.667 -8.49902 33.833 -25.499 45.5s-40.167 17.5 -69.5 17.5h-100v-154h15
c61.333 0 106.666 9 135.999 27s44 39.333 44 64z" />
    <glyph glyph-name="uni044E" unicode="&#x44e;" horiz-adv-x="741" 
d="M712 268c0 -82.667 -21.5 -151.333 -64.5 -206s-102.167 -82 -177.5 -82c-69.333 0 -124.333 22.667 -165 68s-63 100.666 -67 165.999h-74v-214h-103v500h103v-197h80c12.667 64.667 40.334 117 83.001 157s97 60 163 60c69.333 0 123.666 -24.667 162.999 -74
s59 -108.666 59 -177.999zM609 260.001c0 46 -10.332 85.167 -30.999 117.5s-50 48.5 -88 48.5c-49.333 0 -86.5 -16.333 -111.5 -49s-37.5 -78.334 -37.5 -137.001c0 -46 11.167 -85.167 33.5 -117.5s54.166 -48.5 95.499 -48.5c46 0 80.667 16.333 104 49
s35 78.334 35 137.001z" />
    <glyph glyph-name="uni044F" unicode="&#x44f;" horiz-adv-x="523" 
d="M482 500l-19.999 -89.001v-411h-103v164h-101l-145 -187l-79 59l126 152c-24.667 12.667 -45.334 30 -62.001 52s-25 46.667 -25 74c0 56.667 24.167 101.834 72.5 135.501s115.5 50.5 201.5 50.5h135zM179.001 324.999c0 -23.333 8.33301 -41.667 25 -55
s36.667 -20 60 -20h95v161h-10c-54.667 0 -96.667 -7.5 -126 -22.5s-44 -36.167 -44 -63.5z" />
    <glyph glyph-name="uni0454" unicode="&#x454;" horiz-adv-x="417" 
d="M29 230c0 82 33.167 151 99.5 207s152.166 84 257.499 84v-96c-62 0 -115.167 -12.833 -159.5 -38.5s-73.166 -60.167 -86.499 -103.5h246l-15 -89h-236c7.33301 -34.667 24.5 -63.167 51.5 -85.5s63.5 -33.5 109.5 -33.5c35.333 0 65.333 3.66699 90 11v-84
c-26.667 -14.667 -60 -22 -100 -22c-80 0 -142.833 23.833 -188.5 71.5s-68.5 107.167 -68.5 178.5z" />
    <glyph glyph-name="uni0456" unicode="&#x456;" horiz-adv-x="248" 
d="M84 0v411h-73v79l73 10l103 19v-519h-103zM89 570l14 139l110 -13l-23 -111z" />
    <glyph glyph-name="uni0457" unicode="&#x457;" horiz-adv-x="248" 
d="M84 0v411h-73v79l73 10l103 20v-520h-103zM11 569v121h110l-9 -101zM175 579l14 111l110 -9l-23 -92z" />
    <glyph glyph-name="uni0490" unicode="&#x490;" horiz-adv-x="439" 
d="M465 750l-49 -207l-103 10h-129v-553h-105v553l-10 95h267l25 102h104z" />
    <glyph glyph-name="uni0491" unicode="&#x491;" horiz-adv-x="358" 
d="M61 0v411l-20 89h210l30 130h103l-50 -229l-103 10h-67v-411h-103z" />
    <glyph glyph-name="u20b4" unicode="&#x20b4;" horiz-adv-x="472" 
d="M100 559l0.999023 95.999c26.667 11.333 60 17 100 17c59.333 0 106.5 -15.333 141.5 -46s52.5 -69.334 52.5 -116.001c0 -17.333 -3 -34.333 -9 -51h48l-19 -95h-86l-71 -79h170l-19 -95h-221c-2.66699 -8 -4 -18 -4 -30c0 -25.333 7.66699 -45.833 23 -61.5
s37.333 -23.5 66 -23.5c45.333 0 85.333 6 120 18v-96c-31.333 -11.333 -71.333 -17 -120 -17c-59.333 0 -106.666 15.333 -141.999 46s-53 69.334 -53 116.001c0 17.333 2.33301 33.333 7 48h-45v95h104l72 79h-170v95h236c4.66699 14 7 28.333 7 43
c0 22.667 -7.5 40.834 -22.5 54.501s-36.833 20.5 -65.5 20.5c-37.333 0 -71 -6 -101 -18z" />
    <glyph glyph-name="arrowleft" unicode="&#x2190;" horiz-adv-x="774" 
d="M309 438l-95 -107h470v-95h-473l98 -110h-112l-127 156l127 156h112z" />
    <glyph glyph-name="arrowright" unicode="&#x2192;" horiz-adv-x="774" 
d="M465 126l94 107h-469v95h472l-97 110h112l127 -156l-127 -156h-112z" />
    <glyph glyph-name=".null" horiz-adv-x="0" 
 />
    <glyph glyph-name="nonmarkingreturn" horiz-adv-x="333" 
 />
    </font>
</defs>
</svg>
